<svg xmlns="http://www.w3.org/2000/svg" width="968.45" height="100.636" viewBox="0 0 968.45 100.636">
  <g id="artiWord" data-name="artiWord" transform="translate(-1418.553 -78.88)">
    <path id="artiWord" d="M459.56,132.69,420.61,54.63a11.44,11.44,0,0,0-10.08-6.16h-20.3a11.43,11.43,0,0,0-10.08,6.16l-38.8,78.06a2,2,0,0,0,1.8,3H360.6a2.74,2.74,0,0,0,2.55-1.5l8.58-17.15h57.6l8.57,17.15a2.53,2.53,0,0,0,2.56,1.5h17.45a2.1,2.1,0,0,0,1.65-3ZM380.15,99.75l16.24-32.63a2.37,2.37,0,0,1,2-1.21h4.06a2,2,0,0,1,1.95,1.21l16.25,32.63ZM1200,50.58V63.81a2.15,2.15,0,0,1-2.11,2.11H1162.7V145a1.5,1.5,0,0,1-2.48,1.15l-17.51-14.86a6,6,0,0,1-2.12-4.59V65.92h-28a4.27,4.27,0,0,1-3.76-2.41L1102.09,50a1,1,0,0,1,.9-1.51h94.75a2.3,2.3,0,0,1,2.26,2.09ZM1011.24,67.42V83.51h64.23a8.73,8.73,0,0,1,0,17.45h-64.23v12a5.66,5.66,0,0,0,5.57,5.57h72.34a2.15,2.15,0,0,1,2.11,2.1V133.9a2.26,2.26,0,0,1-2.11,2.1h-78.21a22.3,22.3,0,0,1-22.26-22.26v-54a11.11,11.11,0,0,1,11.13-11.13h89.34a2.15,2.15,0,0,1,2.11,2.1V64a2.26,2.26,0,0,1-2.11,2.1H1012.6C1011.84,65.91,1011.24,66.52,1011.24,67.42ZM969.88,51.17v76.56A10.86,10.86,0,0,1,952,136L884.45,78.7v54.44a2.69,2.69,0,0,1-2.7,2.71h-17a2.83,2.83,0,0,1-2.86-2.71V56.74a10.86,10.86,0,0,1,17.9-8.27l67.53,57.3V51.32A2.83,2.83,0,0,1,950,48.47h17a2.73,2.73,0,0,1,2.88,2.7ZM759.47,67.42V83.51h44.67a8.73,8.73,0,0,1,0,17.45H759.47v12a5.65,5.65,0,0,0,5.56,5.57h72.35a2.15,2.15,0,0,1,2.1,2.1V133.9a2.15,2.15,0,0,1-2.1,2.1H759.17a22.3,22.3,0,0,1-22.26-22.26v-54A11.1,11.1,0,0,1,748,48.62h89.34a2.15,2.15,0,0,1,2.1,2.1V64a2.15,2.15,0,0,1-2.1,2.1H760.82C760.07,65.91,759.47,66.52,759.47,67.42Zm-31.89,52.94V133.6a2.15,2.15,0,0,1-2.1,2.1H662.61a22.3,22.3,0,0,1-22.26-22.26V50.57a2.15,2.15,0,0,1,2.1-2.1H661a2.15,2.15,0,0,1,2.11,2.1v62.12a5.65,5.65,0,0,0,5.56,5.56h56.86a2.15,2.15,0,0,1,2.05,2.11ZM628.47,50.58V63.81a2.16,2.16,0,0,1-2.11,2.11H593.57V145a1.5,1.5,0,0,1-2.47,1.14l-17.66-15a6,6,0,0,1-2.13-4.59V65.77H550a4.27,4.27,0,0,1-3.76-2.41l-6.77-13.53c-.3-.6.15-1.36,1.05-1.36H626.4a2.16,2.16,0,0,1,2.07,2.11ZM317.28,91.18c4.06-1.5,12.33-5.41,12.33-16.54,0-19.1-14.13-26.17-31.13-26.17H233.66a2.15,2.15,0,0,0-2.11,2.1v83a2.15,2.15,0,0,0,2.11,2.1h73.09c10.68-.15,26-6.17,26-25.87C332.77,97.5,321.79,92.39,317.28,91.18ZM253.81,67.27a1.27,1.27,0,0,1,1.35-1.36h40c4.21,0,13.39,0,13.39,8.73s-9.33,8.72-13.39,8.72H253.81Zm46.32,50.83h-45a1.26,1.26,0,0,1-1.35-1.35V100.81H300.1c4.52,0,11.74,0,11.74,8.72C311.87,118.4,303.59,118.1,300.13,118.1ZM528.6,50.58V63.81a2.15,2.15,0,0,1-2.11,2.11H500.77V145a1.5,1.5,0,0,1-2.47,1.15l-17.66-15a6,6,0,0,1-2.13-4.59V65.77H450.69a4.27,4.27,0,0,1-3.76-2.41l-6.77-13.53a1.11,1.11,0,0,1,1-1.36h85.28a2.16,2.16,0,0,1,2.16,2.11Z" transform="translate(1187.003 33.001)" fill="#fff"/>
    <path id="artiLogo" d="M847.45,92.08a10.94,10.94,0,1,1-3.2-7.8,11,11,0,0,1,3.2,7.8Z" transform="translate(1187.003 33.001)" fill="#148eff"/>
  </g>
</svg>
